<svg width="17" height="22" viewBox="0 0 17 22" fill="none" xmlns="http://www.w3.org/2000/svg">
<path d="M5.7375 13.4444L8.5 11.7639L11.2625 13.4444L10.5339 10.2667L12.9625 8.15833L9.775 7.88333L8.5 4.88889L7.225 7.88333L4.0375 8.15833L6.46607 10.2667L5.7375 13.4444ZM2.94772e-06 22V2.44444C2.94772e-06 1.77222 0.237801 1.19676 0.713396 0.718056C1.18899 0.239352 1.76072 0 2.42857 0H14.5714C15.2393 0 15.811 0.239352 16.2866 0.718056C16.7622 1.19676 17 1.77222 17 2.44444V22L8.5 18.3333L2.94772e-06 22ZM2.42857 18.2722L8.5 15.6444L14.5714 18.2722V10.3583V2.44444H2.42857V18.2722Z" fill="#9586A8"/>
</svg>
