<svg width="30" height="14" viewBox="0 0 30 14" fill="none" xmlns="http://www.w3.org/2000/svg">
<path d="M6.53333 2.8V0H29.4V2.8H6.53333ZM6.53333 8.4V5.6H17.9667H29.4V8.4H6.53333ZM6.53333 14V11.2H29.4V14H6.53333ZM1.63333 2.8C1.17056 2.8 0.782639 2.66583 0.469583 2.3975C0.156528 2.12917 0 1.79667 0 1.4C0 1.00333 0.156528 0.670833 0.469583 0.4025C0.782639 0.134167 1.17056 0 1.63333 0C2.09611 0 2.48403 0.134167 2.79708 0.4025C3.11014 0.670833 3.26667 1.00333 3.26667 1.4C3.26667 1.79667 3.11014 2.12917 2.79708 2.3975C2.48403 2.66583 2.09611 2.8 1.63333 2.8ZM1.63333 8.4C1.17056 8.4 0.782639 8.26583 0.469583 7.9975C0.156528 7.72917 0 7.39667 0 7C0 6.60333 0.156528 6.27083 0.469583 6.0025C0.782639 5.73417 1.17056 5.6 1.63333 5.6C2.09611 5.6 2.48403 5.73417 2.79708 6.0025C3.11014 6.27083 3.26667 6.60333 3.26667 7C3.26667 7.39667 3.11014 7.72917 2.79708 7.9975C2.48403 8.26583 2.09611 8.4 1.63333 8.4ZM1.63333 14C1.17056 14 0.782639 13.8658 0.469583 13.5975C0.156528 13.3292 0 12.9967 0 12.6C0 12.2033 0.156528 11.8708 0.469583 11.6025C0.782639 11.3342 1.17056 11.2 1.63333 11.2C2.09611 11.2 2.48403 11.3342 2.79708 11.6025C3.11014 11.8708 3.26667 12.2033 3.26667 12.6C3.26667 12.9967 3.11014 13.3292 2.79708 13.5975C2.48403 13.8658 2.09611 14 1.63333 14Z" fill="#9586A8"/>
</svg>
